<svg xmlns="http://www.w3.org/2000/svg" viewBox="0 0 33.32 33.44"><defs><style>.cls-1{fill:#212529;}</style></defs><g id="Capa_2" data-name="Capa 2"><g id="Capa_5" data-name="Capa 5"><path class="cls-1" d="M12.74,23.35A11,11,0,0,1,27.93,10.58,14.2,14.2,0,1,0,4.67,24.73l-.11,5.5,4.83-2.66a14.21,14.21,0,0,0,6.1.78A11.05,11.05,0,0,1,12.74,23.35Z"/><path class="cls-1" d="M33,18.49a9.84,9.84,0,1,1-11.92-7.18A9.83,9.83,0,0,1,33,18.49Z"/><polygon class="cls-1" points="26.61 33.44 27.83 29.2 23.54 30.26 26.61 33.44 27.83 29.2 23.54 30.26 26.61 33.44"/></g></g></svg>